<svg width="17" height="17" viewBox="0 0 17 17" fill="none" xmlns="http://www.w3.org/2000/svg">
<path d="M11.3689 1.452C10.1144 1.61081 8.8063 1.60527 7.48986 1.47993C5.65146 1.33851 2.96461 0.490019 1.97469 2.187C0.384437 4.90371 1.16878 8.38179 1.53935 11.4597L7.06568 16.9849C12.4136 16.7009 16.6997 12.4154 16.9845 7.0677L11.3689 1.452Z" fill="#501A96"/>
<path d="M8.92908 0.48999H4.07057C2.09608 0.48999 0.489746 2.09633 0.489746 4.07082V8.92932C0.489746 10.9037 2.09608 12.5102 4.07061 12.5102H8.92912C10.9035 12.5102 12.51 10.9038 12.51 8.92932V4.07082C12.5099 2.09633 10.9036 0.48999 8.92908 0.48999ZM11.3007 8.92937C11.3007 10.2392 10.2389 11.301 8.92912 11.301H4.07061C2.76082 11.301 1.69901 10.2392 1.69901 8.92937V4.07086C1.69901 2.76107 2.76082 1.69921 4.07061 1.69921H8.92912C10.2389 1.69921 11.3007 2.76111 11.3007 4.07086V8.92937Z" fill="white"/>
<path d="M6.50002 3.39136C4.78581 3.39136 3.39111 4.78605 3.39111 6.50026C3.39111 8.21434 4.78581 9.60904 6.50002 9.60904C8.21422 9.60904 9.6088 8.21447 9.6088 6.50026C9.6088 4.78605 8.21422 3.39136 6.50002 3.39136ZM6.50002 8.39982C5.45088 8.39982 4.60034 7.54944 4.60034 6.50026C4.60034 5.45108 5.45088 4.60058 6.50002 4.60058C7.54915 4.60058 8.39957 5.45104 8.39957 6.50026C8.39957 7.5494 7.54915 8.39982 6.50002 8.39982Z" fill="white"/>
<path d="M10.3601 3.41464C10.3601 3.82603 10.0265 4.15961 9.61508 4.15961C9.2037 4.15961 8.87012 3.82603 8.87012 3.41464C8.87012 3.00322 9.2037 2.66968 9.61508 2.66968C10.0266 2.66968 10.3601 3.00314 10.3601 3.41464Z" fill="#D1D1D1"/>
<path d="M8.92938 0.48999H6.47656V1.69921H8.92938C10.2392 1.69921 11.301 2.76111 11.301 4.07086V8.92937C11.301 10.2392 10.2392 11.301 8.92938 11.301H6.47656V12.5102H8.92938C10.9038 12.5102 12.5102 10.9038 12.5102 8.92932V4.07082C12.5102 2.09633 10.9038 0.48999 8.92938 0.48999Z" fill="#D1D1D1"/>
<path d="M6.50011 3.39136C6.49219 3.39136 6.48448 3.39193 6.47656 3.39193V4.60115C6.4844 4.60107 6.49219 4.60058 6.50011 4.60058C7.54924 4.60058 8.39966 5.45104 8.39966 6.50026C8.39966 7.5494 7.54929 8.39982 6.50011 8.39982C6.49219 8.39982 6.4844 8.39932 6.47656 8.39924V9.60847C6.48448 9.60855 6.49219 9.60904 6.50011 9.60904C8.21431 9.60904 9.60889 8.21443 9.60889 6.50026C9.60889 4.78605 8.21431 3.39136 6.50011 3.39136Z" fill="#D1D1D1"/>
</svg>
