<svg width="17" height="17" viewBox="0 0 17 13" fill="none" xmlns="http://www.w3.org/2000/svg">
<path d="M11.785 0.986572C11.4701 1.08267 11.1418 1.16524 10.813 1.24747C8.47965 1.74241 5.36854 0.398982 4.02511 2.5909C2.90469 4.33382 2.55093 6.51478 1.27637 8.07317L8.08426 14.8811C12.6153 14.1953 16.196 10.614 16.8811 6.08276L11.785 0.986572Z" fill="#A81411"/>
<path d="M10.013 0.248047H2.98709C1.60864 0.248047 0.491211 1.36552 0.491211 2.74393V6.25618C0.491211 7.63463 1.60868 8.75206 2.98709 8.75206H10.013C11.3914 8.75206 12.5089 7.63459 12.5089 6.25618V2.74393C12.5089 1.36552 11.3914 0.248047 10.013 0.248047ZM8.32499 4.67093L5.03882 6.23821C4.95121 6.28001 4.85002 6.21623 4.85002 6.11923V2.88662C4.85002 2.78819 4.95387 2.72441 5.04157 2.76891L8.32774 4.43418C8.4256 4.48369 8.42384 4.62384 8.32499 4.67093Z" fill="white"/>
<path d="M10.0129 0.248047H6.4292V3.47208L8.32769 4.4341C8.42547 4.48365 8.42371 4.62376 8.32486 4.67088L6.4292 5.57503V8.75206H10.0129C11.3913 8.75206 12.5087 7.63459 12.5087 6.25618V2.74393C12.5087 1.36552 11.3913 0.248047 10.0129 0.248047Z" fill="#D1D1D1"/>
</svg>
