<svg width="17" height="17" viewBox="0 0 16 19" fill="none" xmlns="http://www.w3.org/2000/svg">
<path d="M5.96079 18.9894C11.546 18.7483 16 14.1446 16 8.50012C16 8.45927 15.9989 8.41857 15.9984 8.37772L8.70995 1.08911L0.916992 9.23456L5.24686 13.5644L3.25039 16.279L5.96079 18.9894Z" fill="#0053BF"/>
<path d="M8.71011 1.08893V3.46655C8.71011 3.46655 5.98033 3.07033 5.98033 4.83144V6.59255H8.44592L8.13782 9.27827H5.98033V16.2788H3.25056V9.27827L0.916992 9.23421V6.59255H3.2065V4.56724C3.2065 4.56724 3.05541 1.55436 6.02439 1.00097C7.25727 0.771054 8.71011 1.08893 8.71011 1.08893Z" fill="white"/>
<path d="M8.70988 3.46655V1.08893C8.70988 1.08893 7.25703 0.771054 6.02416 1.00097C5.83158 1.03685 5.65246 1.08332 5.48535 1.13827V16.2788H5.9801V9.27827H8.13743L8.44568 6.59255H5.9801C5.9801 6.59255 5.9801 6.59255 5.9801 4.83144C5.9801 3.07033 8.70988 3.46655 8.70988 3.46655Z" fill="#DCE1EB"/>
</svg>
