<svg width="13" height="11" viewBox="0 0 13 11" fill="none" xmlns="http://www.w3.org/2000/svg">
<path d="M12.9318 1.54607C12.4819 1.74559 11.9979 1.88054 11.4902 1.94081C12.0085 1.6303 12.4063 1.13897 12.594 0.552568C12.109 0.840249 11.5717 1.04895 11.0002 1.16143C10.5424 0.673855 9.89013 0.369141 9.16783 0.369141C7.78202 0.369141 6.65806 1.4931 6.65806 2.87891C6.65806 3.07563 6.68033 3.26711 6.72338 3.45091C4.63755 3.34628 2.78812 2.34716 1.55017 0.82827C1.33418 1.19887 1.21027 1.6303 1.21027 2.09018C1.21027 2.96071 1.65368 3.72923 2.32674 4.17919C1.91553 4.16627 1.52827 4.05341 1.19005 3.86493C1.18987 3.8756 1.18987 3.88627 1.18987 3.89675C1.18987 5.1128 2.05534 6.12708 3.20326 6.35748C2.99288 6.41513 2.77071 6.44564 2.54218 6.44564C2.38009 6.44564 2.22305 6.4301 2.06994 6.40091C2.38926 7.39778 3.31594 8.12344 4.41445 8.14384C3.55533 8.81709 2.4733 9.2182 1.29712 9.2182C1.09497 9.2182 0.894698 9.20641 0.69873 9.18301C1.80884 9.89538 3.12839 10.3107 4.54565 10.3107C9.16203 10.3107 11.6866 6.48644 11.6866 3.16959C11.6866 3.06084 11.6842 2.95247 11.6793 2.84504C12.1701 2.49128 12.5955 2.04937 12.9318 1.54607Z" fill="#F1F2F2"/>
</svg>
